<?xml version="1.0" encoding="iso-8859-1"?>
<!-- Uploaded to: SVG Repo, www.svgrepo.com, Generator: SVG Repo Mixer Tools -->
<svg fill="#086788" height="800px" width="800px" version="1.1" id="Layer_1" xmlns="http://www.w3.org/2000/svg" xmlns:xlink="http://www.w3.org/1999/xlink" 
	 viewBox="0 0 512 512" xml:space="preserve">
<g>
	<g>
		<path d="M392.297,39.678l-14.272,19.307c-49.493,80.235-67.691,152.875-53.056,214.421
			c18.112,76.288,81.088,114.923,104.768,129.493l2.645,1.621l20.267,15.147c37.013-44.416,59.349-101.461,59.349-163.669
			C511.998,164.969,464.083,85.075,392.297,39.678z M441.598,279.806c-26.56,21.141-60.544,22.613-75.925,3.285
			c-15.36-19.307-6.293-52.096,20.267-73.237s60.544-22.613,75.925-3.285C477.225,225.875,468.158,258.665,441.598,279.806z"/>
	</g>
</g>
<g>
	<g>
		<path d="M407.424,439.253c-25.173-15.466-101.76-62.464-123.989-155.989c-17.323-72.981,2.624-156.48,59.307-248.192
			l11.392-15.445C323.904,7.019,290.773,0,256,0c-34.069,0-66.56,6.827-96.341,18.965l9.792,16.405
			c56.512,91.413,76.459,174.912,59.115,247.893c-22.229,93.525-98.816,140.523-123.968,155.989l-2.517,1.536l-14.549,7.488
			C132.608,487.808,191.467,512,256,512c63.467,0,121.472-23.339,166.229-61.696L407.424,439.253z"/>
	</g>
</g>
<g>
	<g>
		<path d="M132.994,57.525l-11.349-19.008C48.791,83.68,0.002,164.149,0.002,256.011c0,60.587,21.269,116.245,56.576,160.128
			l25.707-13.248c23.68-14.55,86.634-53.206,104.768-129.494C201.666,211.85,183.49,139.21,132.994,57.525z M146.348,283.104
			c-15.381,19.307-49.365,17.835-75.925-3.307c-26.56-21.12-35.648-53.931-20.267-73.237c15.381-19.307,49.365-17.835,75.925,3.285
			C152.641,230.986,161.708,263.776,146.348,283.104z"/>
	</g>
</g>
</svg>